<svg version="1.1" viewBox="0.0 0.0 200.0 200.0" fill="none" stroke="none" stroke-linecap="square" stroke-miterlimit="10" xmlns:xlink="http://www.w3.org/1999/xlink" xmlns="http://www.w3.org/2000/svg"><clipPath id="p.0"><path d="m0 0l200.0 0l0 200.0l-200.0 0l0 -200.0z" clip-rule="nonzero"/></clipPath><g clip-path="url(#p.0)"><path fill="#000000" fill-opacity="0.0" d="m0 0l200.0 0l0 200.0l-200.0 0z" fill-rule="evenodd"/><defs><linearGradient id="p.1" gradientUnits="userSpaceOnUse" gradientTransform="matrix(10.148522070022429 0.0 0.0 10.148522070022429 0.0 0.0)" spreadMethod="pad" x1="4.7794513608426366" y1="4.779414486429009" x2="4.779414486429009" y2="14.927936556384449"><stop offset="0.0" stop-color="#4d4d4d"/><stop offset="1.0" stop-color="#000000"/></linearGradient></defs><path fill="url(#p.1)" d="m48.504368 100.00043l0 0c0 -28.44049 23.055569 -51.49606 51.49606 -51.49606l0 0c13.657608 0 26.755836 5.425461 36.413223 15.082848c9.657379 9.657383 15.08284 22.755611 15.08284 36.41321l0 0c0 28.44049 -23.055573 51.496063 -51.496063 51.496063l0 0c-28.44049 0 -51.49606 -23.055573 -51.49606 -51.496063z" fill-rule="evenodd"/><path stroke="#ffffff" stroke-width="8.0" stroke-linejoin="round" stroke-linecap="butt" d="m48.504368 100.00043l0 0c0 -28.44049 23.055569 -51.49606 51.49606 -51.49606l0 0c13.657608 0 26.755836 5.425461 36.413223 15.082848c9.657379 9.657383 15.08284 22.755611 15.08284 36.41321l0 0c0 28.44049 -23.055573 51.496063 -51.496063 51.496063l0 0c-28.44049 0 -51.49606 -23.055573 -51.49606 -51.496063z" fill-rule="evenodd"/><path fill="#ffffff" d="m98.78262 64.37825l0 0c9.845459 -7.3232117 25.490814 -3.0082245 34.944885 9.6377945c9.454071 12.646011 9.136795 28.834267 -0.70866394 36.15748l0 0c4.0829315 -9.252983 1.9311218 -21.630394 -5.4850693 -31.550476c-7.4161835 -9.92009 -18.695404 -15.508396 -28.751152 -14.244797z" fill-rule="evenodd"/></g></svg>