<svg version="1.1" viewBox="0.0 0.0 200.0 200.0" fill="none" stroke="none" stroke-linecap="square" stroke-miterlimit="10" xmlns:xlink="http://www.w3.org/1999/xlink" xmlns="http://www.w3.org/2000/svg"><clipPath id="p.0"><path d="m0 0l200.0 0l0 200.0l-200.0 0l0 -200.0z" clip-rule="nonzero"/></clipPath><g clip-path="url(#p.0)"><path fill="#000000" fill-opacity="0.0" d="m0 0l200.0 0l0 200.0l-200.0 0z" fill-rule="evenodd"/><path fill="#434343" d="m13.265761 94.60853l0 0c-6.630449 -11.483696 -2.6943932 -26.165123 8.791425 -32.79189l83.854996 -48.380306l0 0c5.515686 -3.1822863 12.07032 -4.043542 18.221962 -2.3943005c6.151642 1.6492405 11.396393 5.6738806 14.580444 11.188544l48.020508 83.16977c6.6304474 11.483696 2.694397 26.16513 -8.791428 32.791885l-83.85498 48.38031c-11.485817 6.62677 -26.171959 2.6894531 -32.802406 -8.794235z" fill-rule="evenodd"/><path stroke="#f3f3f3" stroke-width="8.0" stroke-linejoin="round" stroke-linecap="butt" d="m13.265761 94.60853l0 0c-6.630449 -11.483696 -2.6943932 -26.165123 8.791425 -32.79189l83.854996 -48.380306l0 0c5.515686 -3.1822863 12.07032 -4.043542 18.221962 -2.3943005c6.151642 1.6492405 11.396393 5.6738806 14.580444 11.188544l48.020508 83.16977c6.6304474 11.483696 2.694397 26.16513 -8.791428 32.791885l-83.85498 48.38031c-11.485817 6.62677 -26.171959 2.6894531 -32.802406 -8.794235z" fill-rule="evenodd"/><path fill="#000000" fill-opacity="0.0" d="m140.10506 81.37003l0 0c1.1026306 2.0841446 1.3321228 4.520851 0.6380005 6.7740707c-0.6941223 2.2532196 -2.255005 4.138382 -4.339264 5.240776l-57.115707 30.209122c-4.3402634 2.2956161 -5.9973755 7.674843 -3.7012634 12.014839l0 0c-2.296112 -4.3399963 -7.6759644 -5.997299 -12.016228 -3.7016907l-0.23671722 0.12521362c-4.340267 2.2956085 -9.720112 0.63830566 -12.016228 -3.7016907z" fill-rule="evenodd"/><path fill="#000000" fill-opacity="0.0" d="m140.10506 81.37003l0 0c1.1026306 2.0841446 1.3321228 4.520851 0.6380005 6.7740707c-0.6941223 2.2532196 -2.255005 4.138382 -4.339264 5.240776l-57.115707 30.209122c-4.3402634 2.2956161 -5.9973755 7.674843 -3.7012634 12.014839l0 0c-2.296112 -4.3399963 -7.6759644 -5.997299 -12.016228 -3.7016907l-0.23671722 0.12521362c-4.340267 2.2956085 -9.720112 0.63830566 -12.016228 -3.7016907" fill-rule="evenodd"/><path stroke="#ffffff" stroke-width="8.0" stroke-linejoin="round" stroke-linecap="butt" d="m140.10506 81.37003l0 0c1.1026306 2.0841446 1.3321228 4.520851 0.6380005 6.7740707c-0.6941223 2.2532196 -2.255005 4.138382 -4.339264 5.240776l-57.115707 30.209122c-4.3402634 2.2956161 -5.9973755 7.674843 -3.7012634 12.014839l0 0c-2.296112 -4.3399963 -7.6759644 -5.997299 -12.016228 -3.7016907l-0.23671722 0.12521362c-4.340267 2.2956085 -9.720112 0.63830566 -12.016228 -3.7016907" fill-rule="evenodd"/><path fill="#000000" fill-opacity="0.0" d="m132.64375 62.30928l0 0c1.0817566 2.0924911 1.2880707 4.529236 0.5735779 6.77417c-0.7144928 2.2449265 -2.2912903 4.1141586 -4.383484 5.19648l-15.6085205 8.074448c-4.356781 2.2538147 -6.062538 7.6132507 -3.8099136 11.97065l0 0c-2.2526245 -4.357399 -7.610611 -6.0626907 -11.9674 -3.808876l-15.608513 8.074448c-4.356781 2.253807 -9.714767 0.5485153 -11.967392 -3.808876z" fill-rule="evenodd"/><path fill="#000000" fill-opacity="0.0" d="m132.64375 62.30928l0 0c1.0817566 2.0924911 1.2880707 4.529236 0.5735779 6.77417c-0.7144928 2.2449265 -2.2912903 4.1141586 -4.383484 5.19648l-15.6085205 8.074448c-4.356781 2.2538147 -6.062538 7.6132507 -3.8099136 11.97065l0 0c-2.2526245 -4.357399 -7.610611 -6.0626907 -11.9674 -3.808876l-15.608513 8.074448c-4.356781 2.253807 -9.714767 0.5485153 -11.967392 -3.808876" fill-rule="evenodd"/><path stroke="#ffffff" stroke-width="8.0" stroke-linejoin="round" stroke-linecap="butt" d="m132.64375 62.30928l0 0c1.0817566 2.0924911 1.2880707 4.529236 0.5735779 6.77417c-0.7144928 2.2449265 -2.2912903 4.1141586 -4.383484 5.19648l-15.6085205 8.074448c-4.356781 2.2538147 -6.062538 7.6132507 -3.8099136 11.97065l0 0c-2.2526245 -4.357399 -7.610611 -6.0626907 -11.9674 -3.808876l-15.608513 8.074448c-4.356781 2.253807 -9.714767 0.5485153 -11.967392 -3.808876" fill-rule="evenodd"/></g></svg>